<svg width="882" height="697" viewBox="0 0 882 697" fill="none" xmlns="http://www.w3.org/2000/svg">
<path d="M13 169.003C13 146.911 30.9083 129 52.9997 129C310.194 129 567.72 129 831.994 129C854.085 129 872 146.908 872 169C872 326.864 872 485.025 872 646.997C872 669.089 854.092 687 832 687C574.806 687 317.28 687 53.006 687C30.9146 687 13 669.092 13 647C13 489.136 13 330.975 13 169.003Z" fill="#FBFBFE"/>
<path d="M107.935 232.872C108.911 232.869 109.887 232.866 110.892 232.863C112.492 232.866 112.492 232.866 114.123 232.869C115.836 232.865 115.836 232.865 117.584 232.862C120.763 232.858 123.942 232.857 127.121 232.859C130.576 232.86 134.031 232.855 137.486 232.85C144.343 232.843 151.201 232.841 158.058 232.84C166.27 232.839 174.481 232.833 182.693 232.826C202.542 232.81 222.391 232.804 242.24 232.799C251.629 232.797 261.018 232.793 270.407 232.789C302.543 232.777 334.68 232.766 366.816 232.762C368.834 232.762 370.851 232.762 372.869 232.762C374.892 232.761 376.914 232.761 378.937 232.761C382.994 232.761 387.052 232.76 391.109 232.76C392.618 232.76 392.618 232.76 394.158 232.759C426.779 232.756 459.401 232.74 492.022 232.717C526.507 232.692 560.992 232.678 595.477 232.677C599.262 232.677 603.048 232.677 606.833 232.676C608.231 232.676 608.231 232.676 609.658 232.676C624.66 232.675 639.662 232.664 654.664 232.649C669.743 232.635 684.821 232.632 699.9 232.64C708.858 232.644 717.816 232.641 726.774 232.625C732.76 232.615 738.747 232.616 744.733 232.626C748.142 232.632 751.551 232.631 754.96 232.62C758.639 232.609 762.317 232.616 765.996 232.628C767.571 232.617 767.571 232.617 769.177 232.605C783.186 232.704 794.221 236.8 804.75 246.062C811.004 252.679 816.112 263.214 816.134 272.381C816.139 273.257 816.143 274.132 816.148 275.034C816.147 276.471 816.147 276.471 816.147 277.936C816.151 278.956 816.155 279.977 816.158 281.029C816.169 284.459 816.173 287.89 816.177 291.32C816.183 293.776 816.19 296.232 816.197 298.687C816.216 306.064 816.227 313.441 816.236 320.818C816.24 324.295 816.245 327.772 816.251 331.249C816.268 342.812 816.282 354.375 816.289 365.938C816.291 368.937 816.293 371.937 816.295 374.936C816.296 375.682 816.296 376.427 816.297 377.195C816.305 389.264 816.33 401.332 816.363 413.401C816.396 425.801 816.414 438.201 816.417 450.6C816.419 457.559 816.428 464.517 816.453 471.475C816.478 478.024 816.481 484.573 816.471 491.122C816.47 493.522 816.477 495.922 816.49 498.321C816.508 501.606 816.501 504.89 816.488 508.175C816.499 509.117 816.51 510.059 816.521 511.029C816.419 521.677 812.505 530.675 806 539C805.522 539.616 805.044 540.232 804.551 540.867C797.376 549 785.188 554.408 774.454 555.184C771.476 555.259 768.503 555.269 765.523 555.257C764.379 555.261 763.236 555.264 762.058 555.268C758.887 555.276 755.717 555.274 752.547 555.269C749.097 555.266 745.646 555.274 742.196 555.281C736.149 555.291 730.103 555.294 724.057 555.292C715.066 555.289 706.074 555.297 697.083 555.308C680.09 555.327 663.097 555.333 646.105 555.334C632.982 555.335 619.86 555.339 606.738 555.345C602.961 555.347 599.184 555.349 595.407 555.351C594.468 555.351 593.529 555.352 592.562 555.352C566.151 555.364 539.74 555.372 513.329 555.371C512.333 555.371 511.337 555.371 510.311 555.371C505.264 555.371 500.217 555.371 495.169 555.371C494.167 555.371 493.164 555.371 492.132 555.371C490.105 555.371 488.077 555.371 486.05 555.37C454.51 555.369 422.97 555.384 391.43 555.412C355.997 555.442 320.565 555.46 285.132 555.458C281.354 555.457 277.576 555.457 273.798 555.457C272.867 555.457 271.937 555.457 270.979 555.457C256.007 555.457 241.036 555.47 226.065 555.487C211.019 555.504 195.973 555.506 180.927 555.493C171.989 555.486 163.052 555.489 154.114 555.509C148.141 555.521 142.168 555.518 136.195 555.504C132.793 555.496 129.392 555.497 125.991 555.511C122.32 555.525 118.651 555.514 114.98 555.498C113.409 555.513 113.409 555.513 111.806 555.528C99.0293 555.405 87.4027 550.731 77.9336 542.121C68.7105 532.261 65.6893 520.788 65.7326 507.621C65.7281 506.601 65.7235 505.581 65.7189 504.53C65.7062 501.126 65.7078 497.722 65.7095 494.317C65.7035 491.871 65.6967 489.424 65.6891 486.978C65.6733 481.03 65.667 475.083 65.6659 469.135C65.665 464.298 65.6608 459.461 65.6545 454.624C65.6369 440.892 65.6277 427.161 65.6292 413.43C65.6292 412.69 65.6293 411.951 65.6294 411.189C65.6295 410.449 65.6296 409.709 65.6297 408.946C65.6305 396.952 65.6113 384.958 65.5831 372.964C65.5544 360.632 65.5406 348.3 65.5423 335.968C65.543 329.051 65.5375 322.134 65.516 315.217C65.4958 308.711 65.4965 302.205 65.511 295.698C65.5131 293.315 65.5084 290.931 65.4963 288.547C65.4808 285.285 65.4902 282.023 65.5055 278.76C65.4953 277.825 65.485 276.889 65.4744 275.926C65.6003 263.77 70.7561 253.931 78.7735 245.031C86.5121 237.586 97.1811 232.879 107.935 232.872Z" fill="#F9F8FE"/>
<path d="M66.0799 0.740143C67.3968 0.736337 68.7137 0.732532 70.0705 0.728611C73.7267 0.718338 77.3828 0.720482 81.039 0.724666C85.0165 0.727033 88.9939 0.717862 92.9714 0.710182C99.9429 0.698336 106.914 0.693969 113.886 0.694503C124.253 0.695296 134.62 0.684747 144.987 0.672087C165.66 0.647345 186.332 0.638564 207.005 0.633551C208.075 0.63329 209.146 0.633029 210.249 0.632759C211.322 0.632499 212.395 0.632239 213.5 0.631971C225.386 0.628889 237.273 0.622384 249.159 0.615758C285.058 0.59611 320.957 0.579706 356.856 0.576882C358.579 0.57674 358.579 0.57674 360.336 0.576597C364.99 0.576218 369.643 0.575854 374.297 0.575494C377.799 0.575222 381.302 0.574945 384.805 0.574668C386.541 0.574536 386.541 0.574536 388.312 0.574401C424.679 0.571496 461.046 0.549399 497.413 0.513145C538.265 0.47242 579.117 0.448723 619.969 0.448422C624.326 0.448325 628.682 0.448158 633.038 0.447942C634.11 0.447898 635.183 0.447854 636.288 0.447808C653.55 0.446688 670.812 0.429279 688.074 0.406123C705.423 0.383282 722.772 0.379054 740.121 0.393672C750.427 0.401824 760.733 0.39613 771.039 0.370491C777.927 0.35474 784.814 0.357216 791.702 0.374398C795.624 0.38367 799.546 0.385161 803.468 0.364432C807.044 0.345696 810.618 0.350404 814.194 0.373023C816.07 0.379075 817.947 0.360835 819.824 0.341309C836.292 0.510554 851.747 8.12269 863.617 19.3635C875.273 32.261 881.162 47.5312 881.134 64.8484C881.137 65.8402 881.139 66.832 881.141 67.8539C881.148 71.1918 881.148 74.5297 881.147 77.8676C881.15 80.2792 881.154 82.6909 881.158 85.1025C881.167 91.0447 881.171 96.9869 881.174 102.929C881.177 110.047 881.185 117.165 881.194 124.282C881.215 141.486 881.225 158.69 881.234 175.894C881.239 184.035 881.244 192.175 881.249 200.316C881.267 228.187 881.282 256.059 881.289 283.931C881.29 285.68 881.29 287.43 881.291 289.179C881.291 290.481 881.291 290.481 881.291 291.808C881.293 296.204 881.294 300.599 881.295 304.995C881.295 305.867 881.296 306.74 881.296 307.638C881.304 335.916 881.327 364.193 881.36 392.47C881.394 422.373 881.414 452.276 881.417 482.18C881.417 485.464 881.418 488.748 881.418 492.032C881.419 492.841 881.419 493.649 881.419 494.482C881.421 507.484 881.437 520.485 881.457 533.487C881.477 546.561 881.483 559.636 881.473 572.71C881.468 580.472 881.474 588.234 881.496 595.996C881.511 601.801 881.505 607.605 881.491 613.41C881.489 615.752 881.493 618.094 881.505 620.436C881.608 642.168 878.679 660.187 863.828 677.172C851.049 689.951 834.441 696.182 816.542 696.27C815.331 696.266 814.12 696.262 812.872 696.258C810.907 696.263 810.907 696.263 808.903 696.268C805.271 696.278 801.639 696.275 798.007 696.27C794.054 696.266 790.101 696.275 786.148 696.281C779.222 696.292 772.295 696.295 765.368 696.292C755.068 696.289 744.767 696.298 734.467 696.308C715 696.328 695.533 696.333 676.065 696.334C661.033 696.335 646 696.339 630.968 696.346C626.641 696.348 622.315 696.349 617.988 696.351C616.913 696.352 615.837 696.352 614.729 696.352C584.475 696.365 554.22 696.373 523.965 696.372C522.825 696.372 521.684 696.372 520.509 696.372C514.727 696.371 508.945 696.371 503.163 696.371C501.441 696.371 501.441 696.371 499.683 696.371C497.361 696.371 495.039 696.371 492.717 696.371C456.585 696.37 420.452 696.385 384.32 696.412C343.73 696.443 303.14 696.46 262.55 696.458C258.223 696.458 253.895 696.458 249.567 696.458C248.502 696.458 247.436 696.458 246.338 696.458C229.187 696.458 212.035 696.47 194.884 696.487C177.648 696.504 160.413 696.506 143.177 696.493C132.937 696.486 122.697 696.49 112.458 696.509C105.616 696.521 98.774 696.519 91.9321 696.504C88.0351 696.496 84.1384 696.495 80.2414 696.511C76.0377 696.528 71.8347 696.515 67.631 696.498C66.4292 696.508 65.2274 696.518 63.9891 696.528C45.9428 696.377 30.5628 688.701 17.9999 676C17.4495 675.483 16.8991 674.966 16.332 674.434C12.6032 670.605 10.2435 666.023 7.81244 661.313C7.47905 660.678 7.14567 660.043 6.80218 659.389C0.0856867 645.802 0.570772 632.175 0.612257 617.367C0.608082 614.945 0.602604 612.523 0.595938 610.102C0.584505 604.847 0.58234 599.593 0.588484 594.339C0.597597 586.525 0.589525 578.712 0.578192 570.898C0.558546 556.94 0.556179 542.982 0.561392 529.024C0.565953 516.808 0.56534 504.592 0.559546 492.376C0.558789 490.736 0.558035 489.096 0.55728 487.456C0.556135 484.985 0.554988 482.514 0.553824 480.043C0.543122 457.073 0.53839 434.104 0.546294 411.134C0.546591 410.269 0.546888 409.403 0.547194 408.511C0.549643 401.483 0.552253 394.455 0.554877 387.427C0.564979 360.015 0.556626 332.603 0.533385 305.191C0.507302 274.378 0.494464 243.565 0.50157 212.752C0.502286 209.465 0.502965 206.179 0.503615 202.892C0.503784 202.083 0.503951 201.274 0.504126 200.44C0.506427 188.234 0.49846 176.029 0.485319 163.824C0.470399 149.94 0.469574 136.057 0.487387 122.173C0.496939 114.409 0.49554 106.644 0.478155 98.88C0.466406 93.0756 0.47567 87.2715 0.492979 81.4671C0.496745 79.1241 0.493801 76.781 0.483366 74.4379C0.392988 52.5846 3.64736 34.786 19.4062 18.4338C32.7565 5.90786 48.0927 0.683824 66.0799 0.740143ZM12.9999 184C12.9381 258.642 12.8762 333.284 12.8124 410.188C12.7851 433.771 12.7578 457.355 12.7297 481.653C12.7196 502.761 12.7196 502.761 12.7136 523.869C12.7108 533.284 12.6998 542.698 12.6832 552.112C12.6641 562.971 12.6554 573.829 12.6596 584.687C12.6614 590.241 12.6585 595.795 12.6423 601.349C12.6277 606.376 12.627 611.402 12.6372 616.428C12.6385 618.241 12.6347 620.054 12.6253 621.868C12.5339 640.519 15.2625 655.714 28.5976 669.715C39.9897 680.551 53.1375 684.782 68.7033 684.629C70.0147 684.637 71.3261 684.644 72.6773 684.651C76.2903 684.671 79.9026 684.659 83.5156 684.643C87.4566 684.63 91.3974 684.646 95.3383 684.659C102.236 684.677 109.134 684.676 116.033 684.664C126.291 684.645 136.548 684.654 146.806 684.67C165.13 684.696 183.453 684.694 201.776 684.679C217.813 684.667 233.849 684.663 249.885 684.669C251.482 684.67 251.482 684.67 253.11 684.67C257.43 684.672 261.75 684.674 266.07 684.675C306.589 684.691 347.108 684.677 387.626 684.65C423.612 684.626 459.597 684.628 495.582 684.652C536.024 684.679 576.466 684.689 616.909 684.674C621.221 684.672 625.534 684.671 629.847 684.669C631.44 684.669 631.44 684.669 633.065 684.668C649.088 684.662 665.112 684.669 681.135 684.682C699.36 684.696 717.584 684.692 735.808 684.665C746.003 684.651 756.197 684.65 766.392 684.669C773.207 684.68 780.023 684.673 786.838 684.651C790.718 684.639 794.597 684.635 798.476 684.653C826.642 684.981 826.642 684.981 851 672C851.717 671.381 852.433 670.763 853.172 670.125C863.603 660.4 868.906 647.662 869.449 633.478C869.527 629.319 869.51 625.164 869.481 621.005C869.483 619.117 869.486 617.228 869.491 615.34C869.5 610.174 869.484 605.009 869.464 599.844C869.447 594.179 869.453 588.514 869.456 582.85C869.458 571.865 869.439 560.881 869.413 549.897C869.385 537.185 869.382 524.474 869.378 511.762C869.357 478.216 869.302 444.671 869.25 411.125C869.167 336.174 869.085 261.223 869 184C586.52 184 304.04 184 12.9999 184Z" fill="#F2F1FE"/>
<path d="M107.935 232.872C108.911 232.869 109.887 232.866 110.892 232.863C112.492 232.866 112.492 232.866 114.123 232.869C115.836 232.865 115.836 232.865 117.584 232.862C120.763 232.858 123.942 232.857 127.121 232.859C130.576 232.86 134.031 232.855 137.486 232.85C144.343 232.843 151.201 232.841 158.058 232.84C166.27 232.839 174.481 232.833 182.693 232.826C202.542 232.81 222.391 232.804 242.24 232.799C251.629 232.797 261.018 232.793 270.407 232.789C302.543 232.777 334.68 232.766 366.816 232.762C368.834 232.762 370.851 232.762 372.869 232.762C374.892 232.761 376.914 232.761 378.937 232.761C382.994 232.761 387.052 232.76 391.109 232.76C392.618 232.76 392.618 232.76 394.158 232.759C426.779 232.756 459.401 232.74 492.022 232.717C526.507 232.692 560.992 232.678 595.477 232.677C599.262 232.677 603.048 232.677 606.833 232.676C608.231 232.676 608.231 232.676 609.658 232.676C624.66 232.675 639.662 232.664 654.664 232.649C669.743 232.635 684.821 232.632 699.9 232.64C708.858 232.644 717.816 232.641 726.774 232.625C732.76 232.615 738.747 232.616 744.733 232.626C748.142 232.632 751.551 232.631 754.96 232.62C758.639 232.609 762.317 232.616 765.996 232.628C767.571 232.617 767.571 232.617 769.177 232.605C783.186 232.704 794.221 236.8 804.75 246.062C811.004 252.679 816.112 263.214 816.134 272.381C816.139 273.257 816.143 274.132 816.148 275.034C816.147 276.471 816.147 276.471 816.147 277.936C816.151 278.956 816.155 279.977 816.158 281.029C816.169 284.459 816.173 287.89 816.177 291.32C816.183 293.776 816.19 296.232 816.197 298.687C816.216 306.064 816.227 313.441 816.236 320.818C816.24 324.295 816.245 327.772 816.251 331.249C816.268 342.812 816.282 354.375 816.289 365.938C816.291 368.937 816.293 371.937 816.295 374.936C816.296 375.682 816.296 376.427 816.297 377.195C816.305 389.264 816.33 401.332 816.363 413.401C816.396 425.801 816.414 438.201 816.417 450.6C816.419 457.559 816.428 464.517 816.453 471.475C816.478 478.024 816.481 484.573 816.471 491.122C816.47 493.522 816.477 495.922 816.49 498.321C816.508 501.606 816.501 504.89 816.488 508.175C816.499 509.117 816.51 510.059 816.521 511.029C816.419 521.677 812.505 530.675 806 539C805.522 539.616 805.044 540.232 804.551 540.867C797.376 549 785.188 554.408 774.454 555.184C771.476 555.259 768.503 555.269 765.523 555.257C764.379 555.261 763.236 555.264 762.058 555.268C758.887 555.276 755.717 555.274 752.547 555.269C749.097 555.266 745.646 555.274 742.196 555.281C736.149 555.291 730.103 555.294 724.057 555.292C715.066 555.289 706.074 555.297 697.083 555.308C680.09 555.327 663.097 555.333 646.105 555.334C632.982 555.335 619.86 555.339 606.738 555.345C602.961 555.347 599.184 555.349 595.407 555.351C594.468 555.351 593.529 555.352 592.562 555.352C566.151 555.364 539.74 555.372 513.329 555.371C512.333 555.371 511.337 555.371 510.311 555.371C505.264 555.371 500.217 555.371 495.169 555.371C494.167 555.371 493.164 555.371 492.132 555.371C490.105 555.371 488.077 555.371 486.05 555.37C454.51 555.369 422.97 555.384 391.43 555.412C355.997 555.442 320.565 555.46 285.132 555.458C281.354 555.457 277.576 555.457 273.798 555.457C272.867 555.457 271.937 555.457 270.979 555.457C256.007 555.457 241.036 555.47 226.065 555.487C211.019 555.504 195.973 555.506 180.927 555.493C171.989 555.486 163.052 555.489 154.114 555.509C148.141 555.521 142.168 555.518 136.195 555.504C132.793 555.496 129.392 555.497 125.991 555.511C122.32 555.525 118.651 555.514 114.98 555.498C113.409 555.513 113.409 555.513 111.806 555.528C99.0293 555.405 87.4027 550.731 77.9336 542.121C68.7105 532.261 65.6893 520.788 65.7326 507.621C65.7281 506.601 65.7235 505.581 65.7189 504.53C65.7062 501.126 65.7078 497.722 65.7095 494.317C65.7035 491.871 65.6967 489.424 65.6891 486.978C65.6733 481.03 65.667 475.083 65.6659 469.135C65.665 464.298 65.6608 459.461 65.6545 454.624C65.6369 440.892 65.6277 427.161 65.6292 413.43C65.6292 412.69 65.6293 411.951 65.6294 411.189C65.6295 410.449 65.6296 409.709 65.6297 408.946C65.6305 396.952 65.6113 384.958 65.5831 372.964C65.5544 360.632 65.5406 348.3 65.5423 335.968C65.543 329.051 65.5375 322.134 65.516 315.217C65.4958 308.711 65.4965 302.205 65.511 295.698C65.5131 293.315 65.5084 290.931 65.4963 288.547C65.4808 285.285 65.4902 282.023 65.5055 278.76C65.4953 277.825 65.485 276.889 65.4744 275.926C65.6003 263.77 70.7561 253.931 78.7735 245.031C86.5121 237.586 97.1811 232.879 107.935 232.872ZM83 259C80.0685 263.803 77.8794 268.526 77.8658 274.217C77.8613 275.081 77.8569 275.946 77.8523 276.836C77.8525 277.786 77.8527 278.736 77.8528 279.715C77.8492 280.724 77.8455 281.733 77.8417 282.773C77.8306 286.169 77.8268 289.566 77.823 292.963C77.8167 295.392 77.8101 297.822 77.8031 300.251C77.7839 307.553 77.7733 314.854 77.7644 322.156C77.76 325.596 77.7546 329.036 77.7494 332.475C77.7324 343.912 77.7179 355.349 77.7106 366.786C77.7087 369.753 77.7068 372.721 77.7048 375.689C77.7044 376.427 77.7039 377.164 77.7034 377.924C77.6951 389.868 77.6698 401.812 77.6373 413.756C77.6042 426.022 77.5862 438.289 77.583 450.555C77.5808 457.441 77.5721 464.326 77.5465 471.211C77.5225 477.691 77.519 484.17 77.5293 490.649C77.5298 493.026 77.5235 495.402 77.5097 497.778C77.492 501.027 77.4991 504.274 77.5123 507.523C77.5013 508.459 77.4903 509.396 77.479 510.361C77.5412 516.732 79.0107 521.396 82 527C82.5363 528.031 83.0725 529.062 83.625 530.125C90.0289 537.877 98.7503 542.261 108.722 543.277C111.699 543.384 114.663 543.399 117.642 543.38C118.779 543.385 119.917 543.39 121.088 543.394C124.897 543.406 128.705 543.397 132.513 543.388C135.272 543.39 138.031 543.397 140.789 543.404C146.787 543.416 152.784 543.418 158.781 543.411C167.7 543.402 176.618 543.41 185.536 543.422C201.466 543.441 217.396 543.444 233.326 543.438C247.268 543.434 261.21 543.435 275.152 543.44C277.023 543.441 278.893 543.442 280.763 543.443C283.582 543.444 286.4 543.445 289.219 543.446C315.422 543.457 341.625 543.461 367.828 543.454C368.816 543.453 369.804 543.453 370.821 543.453C378.842 543.45 386.864 543.448 394.885 543.445C426.17 543.435 457.456 543.443 488.741 543.466C523.894 543.493 559.047 543.505 594.201 543.498C597.949 543.498 601.698 543.497 605.446 543.496C606.369 543.496 607.292 543.496 608.243 543.496C622.174 543.493 636.104 543.501 650.035 543.515C665.879 543.529 681.723 543.53 697.567 543.512C706.432 543.503 715.296 543.504 724.161 543.522C730.086 543.532 736.011 543.528 741.936 543.512C745.309 543.504 748.682 543.503 752.056 543.517C775.927 544.106 775.927 544.106 795.902 532.516C800.527 526.969 804.117 520.124 804.134 512.801C804.139 511.941 804.143 511.081 804.148 510.195C804.148 509.249 804.147 508.304 804.147 507.329C804.153 505.823 804.153 505.823 804.158 504.287C804.169 500.906 804.173 497.525 804.177 494.144C804.183 491.727 804.19 489.309 804.197 486.891C804.216 479.623 804.227 472.356 804.236 465.088C804.24 461.664 804.245 458.24 804.251 454.816C804.268 443.43 804.282 432.043 804.289 420.657C804.291 417.703 804.293 414.748 804.295 411.793C804.296 411.059 804.296 410.324 804.297 409.568C804.305 397.68 804.33 385.791 804.363 373.903C804.396 361.692 804.414 349.481 804.417 337.27C804.419 330.416 804.428 323.563 804.453 316.709C804.478 310.258 804.481 303.808 804.471 297.357C804.47 294.993 804.477 292.628 804.49 290.263C804.508 287.028 804.501 283.794 804.488 280.559C804.499 279.629 804.51 278.7 804.521 277.742C804.431 268.563 801.512 260.586 795.203 253.824C789.193 248.848 781.199 244.877 773.33 244.872C772.363 244.869 771.395 244.866 770.398 244.863C769.331 244.865 768.264 244.867 767.164 244.869C765.461 244.865 765.461 244.865 763.724 244.862C760.555 244.858 757.386 244.857 754.216 244.859C750.775 244.86 747.334 244.855 743.893 244.85C737.059 244.843 730.226 244.841 723.392 244.84C715.21 244.839 707.029 244.833 698.847 244.826C679.069 244.81 659.29 244.804 639.512 244.799C630.158 244.797 620.804 244.793 611.45 244.789C579.439 244.777 547.429 244.766 515.418 244.762C513.408 244.762 511.398 244.762 509.387 244.762C507.372 244.761 505.357 244.761 503.342 244.761C499.299 244.761 495.256 244.76 491.214 244.76C490.211 244.76 489.209 244.759 488.176 244.759C455.673 244.756 423.17 244.74 390.666 244.717C356.314 244.692 321.961 244.678 287.609 244.677C283.839 244.677 280.069 244.677 276.298 244.676C275.37 244.676 274.442 244.676 273.485 244.676C258.536 244.675 243.588 244.664 228.639 244.649C213.616 244.635 198.593 244.632 183.57 244.64C174.643 244.644 165.716 244.64 156.789 244.625C150.825 244.615 144.862 244.616 138.899 244.626C135.501 244.632 132.103 244.631 128.705 244.62C125.042 244.609 121.38 244.616 117.717 244.628C116.666 244.62 115.615 244.613 114.532 244.605C101.481 244.698 91.4394 248.84 83 259Z" fill="#A19CCD"/>
<path d="M148.586 309.735C149.253 309.732 149.921 309.729 150.608 309.727C152.864 309.723 155.119 309.736 157.375 309.75C158.17 309.752 158.966 309.754 159.785 309.756C174.955 309.794 190.095 310.38 205.25 311C222.857 311.713 240.44 312.218 258.063 312.25C258.95 312.255 259.837 312.26 260.752 312.265C271.059 312.313 281.339 312.059 291.633 311.546C292.507 311.503 293.382 311.459 294.283 311.414C295.632 311.347 295.632 311.347 297.008 311.279C322.551 310.013 348.036 309.688 373.608 309.739C379.339 309.751 385.069 309.744 390.8 309.733C411.312 309.698 431.744 309.665 452.203 311.283C463.748 312.196 475.237 312.266 486.812 312.188C488.965 312.181 491.117 312.174 493.269 312.168C504.459 312.122 515.62 311.924 526.797 311.363C548.529 310.341 570.476 310.38 592.188 311.813C593.895 311.918 593.895 311.918 595.638 312.025C596.679 312.106 597.72 312.186 598.793 312.27C599.685 312.338 600.578 312.406 601.497 312.476C605.256 313.263 607.979 315.084 610.812 317.625C612.687 321.375 612.773 324.903 612 329C610.067 332.571 607.916 334.695 604 336C602.042 336.096 600.082 336.131 598.122 336.134C596.894 336.138 595.665 336.142 594.4 336.147C593.035 336.146 591.67 336.146 590.306 336.145C588.87 336.148 587.434 336.152 585.997 336.156C582.084 336.165 578.171 336.167 574.258 336.167C571.8 336.168 569.341 336.17 566.882 336.173C558.26 336.182 549.639 336.186 541.017 336.186C533.06 336.185 525.103 336.195 517.146 336.211C510.268 336.225 503.391 336.23 496.513 336.229C492.427 336.229 488.342 336.231 484.256 336.242C465.418 336.289 446.752 335.761 427.958 334.455C419.741 333.892 411.566 333.71 403.332 333.735C401.843 333.733 400.354 333.73 398.865 333.727C394.98 333.721 391.096 333.73 387.212 333.743C384.758 333.75 382.305 333.753 379.851 333.756C359.836 333.777 339.871 334.074 319.875 335C298.023 336.01 276.202 336.23 254.33 336.247C251.753 336.25 249.176 336.257 246.598 336.265C225.453 336.325 204.41 335.8 183.298 334.597C172.752 333.999 162.224 333.701 151.661 333.584C145.507 333.496 141.622 333.223 137 329C134.303 324.955 134.458 321.747 135 317C136.226 314.119 137.087 312.598 139.698 310.888C142.753 309.71 145.31 309.741 148.586 309.735Z" fill="#E0DBF2"/>
<path d="M362.966 390.921C388.675 392.317 413.949 392.214 439.65 390.727C448.931 390.194 458.203 389.712 467.5 389.562C468.508 389.528 469.516 389.494 470.555 389.459C475.252 389.429 477.282 389.442 481.094 392.402C484.397 396.903 484.684 400.506 484 406C481.624 410.135 479.446 411.55 475 413C472.421 413.368 469.912 413.651 467.32 413.851C466.546 413.915 465.771 413.979 464.972 414.045C462.357 414.253 459.742 414.442 457.125 414.625C456.205 414.69 455.284 414.755 454.336 414.822C416.41 417.404 378.142 416.939 340.238 414.289C310.809 412.237 281.803 412.482 252.397 414.711C235.131 415.995 217.902 416.313 200.597 416.312C198.599 416.312 196.6 416.317 194.602 416.322C181.738 416.342 168.918 416.19 156.09 415.168C155.165 415.099 154.24 415.03 153.288 414.959C146.688 414.353 141.239 413.351 136.5 408.375C134.508 403.893 134.559 400.659 136 396C137.995 392.912 139.4 391.346 143.065 390.553C148.675 389.994 153.983 390.081 159.593 390.618C171.02 391.689 182.34 392.193 193.82 392.16C194.907 392.159 194.907 392.159 196.016 392.158C211.213 392.132 226.36 391.486 241.534 390.716C282.212 388.666 322.283 388.698 362.966 390.921Z" fill="#E0DBF2"/>
<path d="M83.7112 606.372C84.4683 606.365 85.2253 606.358 86.0053 606.35C88.5321 606.333 91.0574 606.351 93.5842 606.369C95.3996 606.364 97.2151 606.357 99.0305 606.347C103.954 606.329 108.877 606.342 113.801 606.361C118.954 606.378 124.107 606.369 129.26 606.364C137.913 606.359 146.566 606.375 155.219 606.403C165.223 606.435 175.227 606.435 185.231 606.418C194.856 606.402 204.481 606.409 214.106 606.426C218.202 606.433 222.297 606.432 226.393 606.424C231.216 606.417 236.038 606.429 240.86 606.456C242.63 606.463 244.4 606.463 246.17 606.456C248.586 606.447 251 606.463 253.416 606.485C254.117 606.477 254.818 606.469 255.541 606.46C260.275 606.541 262.669 607.662 266 611C267.569 614.139 267.352 616.539 267 620C264.562 622.875 264.562 622.875 262 625C261.67 625.33 261.34 625.66 261 626C258.623 626.109 256.275 626.152 253.897 626.154C252.769 626.161 252.769 626.161 251.618 626.167C249.078 626.181 246.539 626.187 243.999 626.193C242.186 626.201 240.373 626.209 238.56 626.218C232.588 626.244 226.616 626.259 220.645 626.274C218.591 626.279 216.538 626.284 214.485 626.29C205.945 626.311 197.406 626.33 188.866 626.341C176.615 626.358 164.365 626.391 152.114 626.448C143.508 626.486 134.901 626.506 126.295 626.511C121.152 626.515 116.008 626.527 110.865 626.559C106.025 626.589 101.185 626.596 96.3446 626.584C94.5685 626.584 92.7923 626.592 91.0162 626.61C88.5895 626.632 86.1648 626.624 83.7381 626.608C83.0364 626.622 82.3348 626.636 81.6119 626.65C76.0551 626.561 73.7538 624.81 70 621C69.2031 618.719 69.2031 618.719 69.25 616.5C69.2345 615.768 69.2191 615.036 69.2031 614.281C71.5247 607.635 77.384 606.265 83.7112 606.372Z" fill="#BFB9E0"/>
<path d="M772.437 53.375C775.566 54.1381 777.018 55.5538 778.945 58.0977C780.476 60.8587 780.923 63.618 781.492 66.6992C783.084 73.9132 786.882 78.9616 793 83C797.138 85.2267 801.33 86.883 805.875 88.0625C810.441 89.4323 810.441 89.4323 812 92C812.64 97.1202 812.64 97.1202 810.832 99.6055C808.407 101.451 806.298 101.751 803.312 102.312C794.7 104.31 789.08 108.887 784 116C782.156 119.689 780.925 123.18 780.062 127.188C778.966 131.12 778.373 132.751 775 135C772 135.562 772 135.562 769 135C765.826 132.267 764.847 129.803 764.125 125.812C762.687 118.375 758.927 112.153 752.937 107.5C748.802 104.72 745.444 103.152 740.437 102.625C737 102 737 102 734.562 100.375C732.377 97.0523 732.434 94.8926 733 91C736.027 88.0376 739.143 87.3031 743.187 86.3125C750.684 84.0973 755.891 80.541 760.332 74.0547C762.29 70.4316 763.398 66.7061 764.5 62.75C765.89 57.8925 767.229 54.7105 772.437 53.375Z" fill="#A39BFE"/>
<path d="M307 77.9999C312.15 80.5282 315.599 84.0876 318.09 89.2655C320.319 95.9626 320.069 104.713 317.184 111.215C314.512 115.244 310.611 119.141 305.957 120.672C301.094 121.487 297.972 121.558 293.625 119.062C291 117 291 117 290 116C289.67 122.27 289.34 128.54 289 135C286.238 136.381 284.053 136.191 281 136C279 134 279 134 278.753 131.716C278.754 130.764 278.756 129.812 278.757 128.832C278.754 127.754 278.751 126.676 278.748 125.566C278.755 124.398 278.762 123.23 278.77 122.027C278.77 120.834 278.77 119.64 278.771 118.411C278.774 115.885 278.782 113.359 278.794 110.833C278.812 106.95 278.815 103.068 278.814 99.1855C278.819 96.7369 278.825 94.2883 278.832 91.8398C278.833 90.67 278.834 89.5003 278.835 88.2951C278.845 86.6832 278.845 86.6832 278.855 85.0387C278.859 84.0877 278.862 83.1366 278.866 82.1568C279 79.9999 279 79.9999 280 78.9999C285.841 78.6291 285.841 78.6291 288 78.9999C288.66 79.9899 289.32 80.9799 290 81.9999C290.763 81.3399 291.526 80.6799 292.313 79.9999C296.837 76.9907 301.776 77.2291 307 77.9999Z" fill="#6967A1"/>
<path d="M99.0625 62.6873C100.279 62.6583 101.495 62.6293 102.748 62.5994C110.615 62.544 116.629 62.9312 122.635 68.5218C125.831 71.9831 126.381 75.3059 126.563 79.9373C126.311 85.3635 125.376 89.6722 122 93.9998C113.814 100.912 105.197 100.254 95 99.9998C95.0053 100.57 95.0105 101.14 95.0159 101.728C95.0366 104.298 95.0497 106.868 95.0625 109.437C95.0709 110.335 95.0793 111.233 95.0879 112.158C95.0912 113.012 95.0944 113.866 95.0977 114.746C95.1029 115.537 95.1082 116.327 95.1136 117.142C95 119 95 119 94 120C90.5625 120.187 90.5625 120.187 87 120C85 118 85 118 84.7528 115.716C84.7542 114.764 84.7557 113.812 84.7571 112.832C84.754 111.754 84.751 110.676 84.7478 109.566C84.755 108.398 84.7622 107.23 84.7696 106.027C84.77 104.834 84.7705 103.64 84.771 102.411C84.774 99.8848 84.7819 97.3587 84.7942 94.8326C84.8125 90.9501 84.8147 87.0679 84.8145 83.1854C84.8194 80.7368 84.8252 78.2882 84.8321 75.8397C84.8332 74.6699 84.8343 73.5002 84.8354 72.295C84.845 70.6831 84.845 70.6831 84.8548 69.0387C84.8586 68.0876 84.8624 67.1365 84.8663 66.1567C85.2194 60.4623 94.7798 62.7206 99.0625 62.6873Z" fill="#6766A0"/>
<path d="M193.5 79.5626C198.35 82.4335 201.242 86.7272 203 92.0001C204.264 107.218 204.264 107.218 199.422 113.488C194.53 118.689 189.827 121.003 182.687 121.375C177.532 121.21 173.235 119.996 169 117C163.461 110.671 161.604 104.951 161.727 96.6602C162.37 90.4041 164.884 85.6632 169.562 81.5001C175.92 76.4023 186.174 76.2846 193.5 79.5626Z" fill="#6867A1"/>
<path d="M215.562 77.9373C216.697 77.9579 217.831 77.9785 219 77.9998C219.33 79.6498 219.66 81.2998 220 82.9998C220.66 82.9998 221.32 82.9998 222 82.9998C222.33 82.0098 222.66 81.0198 223 79.9998C227.297 77.1699 232.045 77.2182 237 77.9998C239.756 79.3996 241.642 80.9494 244 82.9998C244.763 82.1748 245.526 81.3498 246.312 80.4998C250.105 77.3212 253.649 77.4013 258.445 77.6482C263.196 78.3021 265.171 79.9566 268.102 83.6451C270.352 87.6213 270.477 90.01 270.426 94.5506C270.422 95.25 270.419 95.9494 270.416 96.67C270.405 98.1366 270.386 99.6031 270.357 101.069C270.312 103.323 270.295 105.576 270.283 107.83C270.18 118.82 270.18 118.82 269 120C267.187 120.133 267.187 120.133 265 120.125C264.278 120.127 263.556 120.13 262.812 120.133C261 120 261 120 260 119C259.866 116.806 259.796 114.608 259.754 112.41C259.721 111.055 259.688 109.7 259.654 108.345C259.607 106.201 259.562 104.057 259.523 101.913C259.484 99.8493 259.432 97.786 259.379 95.7224C259.354 94.4824 259.329 93.2424 259.303 91.9649C259.303 88.8821 259.303 88.8821 257 86.9998C252.295 86.4773 252.295 86.4773 248.125 88.3123C245.839 91.7407 245.832 94.9453 245.719 98.9451C245.681 100.104 245.644 101.263 245.605 102.457C245.535 104.91 245.465 107.363 245.395 109.816C245.357 110.972 245.32 112.129 245.281 113.32C245.251 114.385 245.221 115.45 245.189 116.547C245 119 245 119 244 120C240.5 120.125 240.5 120.125 237 120C235.155 118.154 235.804 115.139 235.754 112.664C235.721 111.372 235.688 110.081 235.654 108.75C235.607 106.687 235.562 104.624 235.523 102.561C235.483 100.574 235.431 98.5879 235.379 96.6014C235.354 95.4085 235.329 94.2156 235.303 92.9866C235.217 89.8183 235.217 89.8183 233 86.9998C229.184 86.5051 226.952 86.2884 223.807 88.638C221.489 91.6682 221.489 93.4375 221.461 97.2264C221.438 98.4226 221.415 99.6189 221.391 100.851C221.385 102.097 221.38 103.342 221.375 104.625C221.35 107.096 221.316 109.568 221.273 112.039C221.267 113.134 221.262 114.229 221.255 115.358C221 118 221 118 219 120C215.437 120.187 215.437 120.187 212 120C210.104 118.104 210.871 115.336 210.861 112.814C210.863 111.947 210.865 111.08 210.867 110.187C210.866 109.303 210.865 108.419 210.864 107.508C210.864 105.635 210.865 103.762 210.87 101.889C210.875 99.0121 210.87 96.1349 210.863 93.2576C210.864 91.4425 210.865 89.6274 210.867 87.8123C210.865 86.9456 210.863 86.079 210.861 85.1861C210.889 78.0193 210.889 78.0193 215.562 77.9373Z" fill="#6766A0"/>
<path d="M333.563 65.8125C337 66 337 66 338 67C338.072 69.0196 338.084 71.0417 338.063 73.0625C338.053 74.1672 338.044 75.272 338.035 76.4102C338.024 77.2648 338.012 78.1195 338 79C341.63 79 345.26 79 349 79C349.042 81.3329 349.041 83.667 349 86C348 87 348 87 345.715 87.0977C344.34 87.0803 344.34 87.0803 342.938 87.0625C342.018 87.0535 341.099 87.0445 340.152 87.0352C339.442 87.0236 338.732 87.012 338 87C338.138 90.8128 338.287 94.6252 338.438 98.4375C338.477 99.5261 338.516 100.615 338.557 101.736C338.599 102.771 338.64 103.805 338.684 104.871C338.72 105.829 338.757 106.788 338.795 107.775C338.758 109.971 338.758 109.971 340 111C341.495 111.207 342.997 111.367 344.5 111.5C348.889 111.889 348.889 111.889 350 113C350.125 116 350.125 116 350 119C348.078 120.922 344.807 120.262 342.25 120.312C340.401 120.369 340.401 120.369 338.516 120.426C334.371 119.924 332.849 119.008 330 116C328.181 112.301 327.761 109.361 327.805 105.262C327.811 104.195 327.818 103.128 327.824 102.029C327.841 100.927 327.858 99.8237 327.875 98.6875C327.884 97.5654 327.893 96.4432 327.902 95.2871C327.926 92.5245 327.959 89.7624 328 87C327.196 87.0206 326.391 87.0412 325.563 87.0625C323 87 323 87 322 86C321.959 83.667 321.958 81.3329 322 79C323.98 79 325.96 79 328 79C327.977 78.2291 327.954 77.4583 327.93 76.6641C327.912 75.6612 327.894 74.6583 327.875 73.625C327.852 72.6273 327.829 71.6295 327.805 70.6016C328.126 66.3273 329.412 66.0309 333.563 65.8125Z" fill="#6765A0"/>
<path d="M142 78C143.875 80 143.875 80 145 82C145.639 81.34 146.279 80.68 146.937 80C150.973 77.3647 154.29 77.4063 159 78C160 79 160 79 160.125 82.5C160 86 160 86 159 87C156.515 87.1629 154.033 87.2545 151.543 87.3281C147.961 88.2745 147.018 89.9443 145 93C144.382 95.9661 144.382 95.9661 144.426 99.1406C144.398 100.293 144.37 101.445 144.342 102.633C144.332 103.826 144.322 105.02 144.312 106.25C144.271 108.63 144.225 111.01 144.176 113.391C144.165 114.443 144.153 115.495 144.142 116.579C144 119 144 119 143 120C141.187 120.133 141.187 120.133 139 120.125C138.278 120.128 137.556 120.13 136.812 120.133C135 120 135 120 134 119C133.911 116.043 133.885 113.109 133.902 110.152C133.904 109.266 133.905 108.379 133.907 107.466C133.912 104.623 133.925 101.78 133.937 98.9375C133.942 97.0149 133.947 95.0924 133.951 93.1699C133.962 88.4465 133.979 83.7233 134 79C136.829 77.5855 138.874 77.681 142 78Z" fill="#6766A0"/>
<path d="M772 77C772.516 77.66 773.031 78.32 773.562 79C780.379 87.496 780.379 87.496 789 94C788.34 94.66 787.68 95.32 787 96C786.323 96.6826 786.323 96.6826 785.633 97.3789C784.434 98.5688 783.218 99.7408 781.992 100.902C778.041 104.701 775.045 107.887 773 113C770.597 110.734 768.737 108.303 766.812 105.625C763.805 101.673 760.874 99.2862 756.504 96.9727C755.759 96.4912 755.759 96.4912 755 96C755 95.34 755 94.68 755 94C756.758 92.7734 756.758 92.7734 759.125 91.375C763.955 88.2792 766.9 84.7672 770 80C770.66 79.01 771.32 78.02 772 77Z" fill="#F3F2FE"/>
<path d="M184.773 85.5704C188.305 86.2519 189.882 88.2208 192 91.0001C194.081 95.1616 193.332 100.457 193 105C191.825 108.407 191.056 110.171 188.25 112.375C184.981 113.283 182.379 113.356 179 113C176.058 111.235 174.448 109.746 172.687 106.813C171.381 101.466 171.307 96.7811 173.312 91.6251C176.644 86.4427 178.654 85.391 184.773 85.5704Z" fill="#F1F0FC"/>
<path d="M303 86C305.691 88.1757 307.455 89.9107 309 93C309.122 94.7677 309.176 96.5406 309.188 98.3125C309.202 99.2574 309.216 100.202 309.231 101.176C308.92 104.986 307.962 107.732 305.648 110.781C302.94 112.783 300.493 112.528 297.227 112.422C293.628 111.74 292.097 109.884 290 107C288.36 103.342 288.567 98.9449 289 95C291.835 87.8452 294.831 84.2483 303 86Z" fill="#F1F0FC"/>
<path d="M95 71.0002C108.35 70.5956 108.35 70.5956 113 74.0002C115.372 76.3718 115.947 77.5853 116.375 80.9377C115.944 84.4547 115.22 86.2448 113 89.0002C107.236 91.9852 101.34 91.1282 95 91.0002C95 84.4002 95 77.8002 95 71.0002Z" fill="#EEEDFA"/>
<path d="M84 241C84 244 84 244 81.8125 246.48C80.8844 247.374 79.9563 248.267 79 249.188C78.0719 250.089 77.1438 250.99 76.1875 251.918C75.4656 252.605 74.7437 253.292 74 254C74 250.281 74.874 249.639 77.3125 246.938C78.2348 245.899 78.2348 245.899 79.1758 244.84C81 243 81 243 84 241Z" fill="#9994C8"/>
<path d="M865 653C866 655 866 655 865.312 657.5C864 660 864 660 860 662C861.65 659.03 863.3 656.06 865 653Z" fill="#8781BC"/>
<rect x="7" y="7" width="868" height="683" rx="57" stroke="#8E87BE" stroke-width="14"/>
<line x1="5" y1="178.5" x2="874" y2="178.5" stroke="#8E87BE" stroke-width="11"/>
</svg>
